<?xml version="1.0" encoding="UTF-8"?><svg id="Layer_2" xmlns="http://www.w3.org/2000/svg" viewBox="0 0 103.4 71.54"><defs><style>.cls-1{fill:#fff;}</style></defs><g id="Layer_1-2"><path class="cls-1" d="m99.04,8.53c1.25,0,2.28.31,3.11.93.83.62,1.25,1.39,1.25,2.32V0c0,.93-.42,1.7-1.25,2.32-.83.62-1.87.93-3.11.93H4.36c-1.25,0-2.28-.31-3.11-.93C.42,1.7,0,.93,0,0v11.78c0-.93.42-1.7,1.25-2.32.83-.62,1.87-.93,3.11-.93h4.37v55.59h-4.37c-1.25,0-2.28-.31-3.11-.93-.83-.62-1.25-1.39-1.25-2.32v10.68c0-.93.42-1.7,1.25-2.32.83-.62,1.87-.93,3.11-.93h94.68c1.25,0,2.28.31,3.11.93.83.62,1.25,1.39,1.25,2.32v-10.68c0,.93-.42,1.7-1.25,2.32-.83.62-1.87.93-3.11.93h-2.55V8.53h2.55Zm-9.77,0l-36.58,36.58L16.11,8.53h73.16ZM14.02,63.02V13.89l13.02,13.02,21.92,21.92,3.73,3.73,3.73-3.73L91.21,14.04v48.98H14.02Z"/></g></svg>