<?xml version="1.0" encoding="UTF-8"?><svg id="Layer_2" xmlns="http://www.w3.org/2000/svg" viewBox="0 0 84.19 84.19"><defs><style>.cls-1{fill:none;}.cls-2{fill:#fff;}</style></defs><g id="Layer_1-2"><g><path class="cls-1" d="m24.28,49.26c-1.01,0-1.86.34-2.54,1.02-.68.68-1.01,1.52-1.01,2.54v-11.67c0,1.02.34,1.86,1.01,2.54.68.68,1.52,1.02,2.54,1.02h6.8v-8.02c0-4.94,1.64-9.06,4.92-12.38,3.28-3.31,7.39-4.97,12.33-4.97,3.45,0,6.49.78,9.13,2.33,2.3,1.35,4.3,1.18,5.99-.51l-9.13,9.13c.81-.81,1.17-1.73,1.07-2.74-.1-1.01-.59-1.79-1.47-2.33-1.56-.88-3.42-1.32-5.58-1.32-3.45,0-6.34,1.22-8.67,3.65-2.34,2.44-3.5,5.48-3.5,9.13v8.02h13.19c1.02,0,1.86-.34,2.54-1.02.68-.68,1.01-1.52,1.01-2.54v11.67c0-1.01-.34-1.86-1.01-2.54-.68-.68-1.52-1.02-2.54-1.02h-13.19v28.94c1.94.32,3.91.53,5.94.53,20.2,0,36.63-16.43,36.63-36.63S62.29,5.46,42.09,5.46,5.46,21.89,5.46,42.09c0,16.36,10.79,30.25,25.62,34.93v-27.77h-6.8Z"/><path class="cls-2" d="m42.09,0C18.88,0,0,18.88,0,42.09c0,19.4,13.2,35.72,31.08,40.58v-5.65c-14.83-4.69-25.62-18.57-25.62-34.93C5.46,21.89,21.89,5.46,42.09,5.46s36.63,16.43,36.63,36.63-16.43,36.63-36.63,36.63c-2.03,0-4-.21-5.94-.53v5.52c1.95.28,3.92.47,5.94.47,23.21,0,42.09-18.88,42.09-42.09S65.3,0,42.09,0Z"/><path class="cls-2" d="m36.16,49.26h13.19c1.02,0,1.86.34,2.54,1.02.68.68,1.01,1.52,1.01,2.54v-11.67c0,1.02-.34,1.86-1.01,2.54-.68.68-1.52,1.02-2.54,1.02h-13.19v-8.02c0-3.65,1.17-6.7,3.5-9.13,2.33-2.44,5.22-3.65,8.67-3.65,2.16,0,4.02.44,5.58,1.32.88.54,1.37,1.32,1.47,2.33.1,1.02-.25,1.93-1.07,2.74l9.13-9.13c-1.69,1.69-3.69,1.86-5.99.51-2.64-1.56-5.68-2.33-9.13-2.33-4.94,0-9.05,1.66-12.33,4.97-3.28,3.32-4.92,7.44-4.92,12.38v8.02h-6.8c-1.01,0-1.86-.34-2.54-1.02-.68-.68-1.01-1.52-1.01-2.54v11.67c0-1.01.34-1.86,1.01-2.54.68-.68,1.52-1.02,2.54-1.02h6.8v27.77c1.64.52,3.34.89,5.07,1.17v-28.94Z"/><path class="cls-2" d="m31.08,77.02v5.65c1.65.45,3.35.8,5.07,1.04v-5.52c-1.73-.28-3.43-.65-5.07-1.17Z"/></g></g></svg>