<?xml version="1.0" encoding="UTF-8"?><svg id="Layer_2" xmlns="http://www.w3.org/2000/svg" viewBox="0 0 97.84 83.12"><defs><style>.cls-1{fill:#fff;}</style></defs><g id="Layer_1-2"><g><ellipse class="cls-1" cx="73.86" cy="17.72" rx="3.18" ry="6.2" transform="translate(11.89 61.63) rotate(-48.81)"/><path class="cls-1" d="m96.61,37.87c-.81.81-1.82,1.22-3.04,1.23h-.73v-16.69c0-12.36-10.05-22.41-22.41-22.41H27.42C15.06,0,5,10.05,5,22.41v16.69h-.69c-1.23,0-2.26-.41-3.08-1.23-.82-.82-1.23-1.85-1.23-3.08v14.18c0-1.23.41-2.26,1.23-3.08.82-.82,1.85-1.23,3.08-1.23h.69v16.06c0,12.36,10.05,22.41,22.41,22.41h43.01c12.36,0,22.41-10.05,22.41-22.41v-16.05h.82c1.17.03,2.16.43,2.95,1.22.82.82,1.23,1.85,1.23,3.08v-14.18c0,1.23-.41,2.26-1.23,3.08Zm-8.97,22.84c0,9.49-7.72,17.21-17.21,17.21H27.42c-9.49,0-17.21-7.72-17.21-17.21v-16.09h19.25c.33,4.8,2.19,8.91,5.55,12.23,3.72,3.68,8.42,5.54,13.95,5.54s10.21-1.87,13.91-5.54c3.33-3.31,5.17-7.41,5.51-12.19h19.25v16.05Zm-49.14-7.13c-2.79-2.79-4.21-6.34-4.21-10.54s1.42-7.74,4.21-10.54c2.79-2.79,6.32-4.21,10.47-4.21s7.67,1.42,10.47,4.21c2.79,2.79,4.21,6.34,4.21,10.54s-1.42,7.75-4.21,10.54c-2.79,2.79-6.32,4.21-10.47,4.21s-7.67-1.42-10.47-4.21Zm49.14-14.49h-19.53c-.7-3.79-2.45-7.1-5.23-9.86-3.7-3.68-8.38-5.54-13.91-5.54s-10.22,1.86-13.95,5.54c-2.8,2.76-4.57,6.07-5.27,9.87H10.21v-16.7c0-9.49,7.72-17.21,17.21-17.21h43.01c9.49,0,17.21,7.72,17.21,17.21v16.69Z"/></g></g></svg>