<?xml version="1.0" encoding="UTF-8"?><svg id="Layer_2" xmlns="http://www.w3.org/2000/svg" viewBox="0 0 31.14 24.85"><defs><style>.cls-1{fill:#283a97;}.cls-2{fill:none;stroke:#283a97;stroke-width:.5px;}.cls-3{isolation:isolate;}</style></defs><g id="Layer_1-2"><g class="cls-3"><path class="cls-1" d="m.25,4.85C5.03,1.78,10.13.25,15.57.25s10.54,1.53,15.32,4.6v1.71C26.07,3.37,20.96,1.78,15.57,1.78S5.07,3.37.25,6.56v-1.71Z"/><path class="cls-1" d="m.25,13.76c4.78-3.06,9.88-4.6,15.32-4.6s10.54,1.53,15.32,4.6v1.71c-4.82-3.19-9.93-4.78-15.32-4.78S5.07,12.29.25,15.47v-1.71Z"/><path class="cls-1" d="m.25,22.67c4.78-3.06,9.88-4.6,15.32-4.6s10.54,1.53,15.32,4.6v1.71c-4.82-3.19-9.93-4.78-15.32-4.78s-10.5,1.59-15.32,4.78v-1.71Z"/></g><g class="cls-3"><path class="cls-2" d="m.25,4.85C5.03,1.78,10.13.25,15.57.25s10.54,1.53,15.32,4.6v1.71C26.07,3.37,20.96,1.78,15.57,1.78S5.07,3.37.25,6.56v-1.71Z"/><path class="cls-2" d="m.25,13.76c4.78-3.06,9.88-4.6,15.32-4.6s10.54,1.53,15.32,4.6v1.71c-4.82-3.19-9.93-4.78-15.32-4.78S5.07,12.29.25,15.47v-1.71Z"/><path class="cls-2" d="m.25,22.67c4.78-3.06,9.88-4.6,15.32-4.6s10.54,1.53,15.32,4.6v1.71c-4.82-3.19-9.93-4.78-15.32-4.78s-10.5,1.59-15.32,4.78v-1.71Z"/></g></g></svg>