<?xml version="1.0" encoding="UTF-8"?><svg id="Layer_2" xmlns="http://www.w3.org/2000/svg" viewBox="0 0 30.17 26.87"><defs><style>.cls-1{fill:#283a97;}</style></defs><g id="Layer_1-2"><path id="Path_3" class="cls-1" d="m25.28,20.77c0-.26.1-.51.28-.69,3.63-3.66,3.66-9.62.08-13.32-.03-.03-.05-.05-.08-.08-.37-.38-.37-1,0-1.38s.98-.38,1.35,0h0c4.35,4.47,4.35,11.69,0,16.16-.38.36-.97.36-1.35,0-.17-.19-.26-.44-.28-.69h0Z"/><path id="Path_4" class="cls-1" d="m21.98,17.4c0-.26.1-.51.28-.69,1.8-1.84,1.8-4.82,0-6.66-.37-.38-.37-1,0-1.38s.98-.38,1.35,0c2.55,2.6,2.55,6.82,0,9.43-.38.36-.97.36-1.35,0-.17-.2-.26-.44-.28-.7Z"/><path id="Path_5" class="cls-1" d="m11.63,4.24c-1.93,1.51-4.13,2.61-6.49,3.24-.09,0-.18.05-.28.05H1.31C.59,7.53,0,8.13,0,8.86H0v9.15c0,.74.58,1.33,1.3,1.34h3.28c.1,0,.19,0,.28.05,2.42.58,4.69,1.67,6.68,3.19,1.53,1.13,2.94,2.43,4.2,3.86.49.53,1.3.57,1.83.07.27-.25.42-.6.42-.97V1.31C17.97.58,17.38,0,16.66,0c-.35,0-.68.15-.92.41-1.23,1.43-2.61,2.72-4.11,3.83h0Z"/></g></svg>