<?xml version="1.0" encoding="UTF-8"?>
<svg id="Layer_2"
     xmlns="http://www.w3.org/2000/svg"
     viewBox="0 0 29.33 26.87">
  <defs>
    <style>
        .cls-1,.cls-2{
          fill:#283a97;
        }

        .cls-3,.cls-2{
          isolation:isolate;
        }

        .cls-2 {
          font-family: "GradientGothic", sans-serif;
          font-size:17.31px;
          font-weight:300;
          stroke:#283a97;
          stroke-miterlimit:10;
          stroke-width:.5px;
        }
      </style>
  </defs>

  <g id="Layer_1-2">
    <g id="Group_86">
      <path id="Path_5" class="cls-1" d="m11.63,4.24c-1.93,1.51-4.13,2.61-6.49,3.24-.09,0-.18.05-.28.05H1.31C.59,7.53,0,8.13,0,8.86H0v9.15c0,.74.58,1.33,1.3,1.34h3.28c.1,0,.19,0,.28.05,2.42.58,4.69,1.67,6.68,3.19,1.53,1.13,2.94,2.43,4.2,3.86.49.53,1.3.57,1.83.07.27-.25.42-.6.42-.97V1.31C17.97.58,17.38,0,16.66,0c-.35,0-.68.15-.92.41-1.23,1.43-2.61,2.72-4.11,3.83h0Z"/>
    </g>
    <g id="x" class="cls-3">
      <text class="cls-2" transform="translate(20.85 18) scale(.98 1)">
        <tspan x="0" y="0">x</tspan>
      </text>
      <text class="cls-2" transform="translate(20.85 18) scale(.98 1)">
        <tspan x="0" y="0">x</tspan>
      </text>
    </g>
  </g>
</svg>